<svg width="130px" height="30px" viewBox="0 0 130 30" version="1.1" xmlns="http://www.w3.org/2000/svg" xmlns:xlink="http://www.w3.org/1999/xlink">
  <defs>
    <polygon id="path-1" points="0 28.7904593 129.126101 28.7904593 129.126101 0 0 0"/>
  </defs>
  <g id="Symbols" stroke="none" stroke-width="1" fill="none" fill-rule="evenodd">
    <g id="Navigation-/-Desktop-Header-White-Page" transform="translate(-228.000000, -84.000000)">
      <g id="Group" transform="translate(0.000000, -1.000000)">
        <g id="Menu">
          <g id="Logo-/-Logo-Mobilia" transform="translate(228.000000, 85.000000)">
            <g id="Logo" transform="translate(0.000000, 0.699219)">
              <path d="M6.18258693 12.9436812L6.24301979 12.9436812C7.70744842 11.01044 9.5063943 10.1949016 11.7485145 10.1949016 14.2653295 10.1949016 16.4482377 11.2155455 17.7014566 13.522982 18.8930217 11.3504512 21.2425781 10.1949016 23.6104474 10.1949016 28.0336445 10.1949016 29.5633895 13.0791973 29.5633895 17.0982878L29.5633895 28.2148821 23.3766516 28.2148821 23.3766516 19.8849142C23.3766516 18.0786431 23.4444097 15.1253685 20.8226002 15.1253685 17.9718784 15.1253685 17.8668839 17.810663 17.8668839 19.8849142L17.8668839 28.2148821 11.6819773 28.2148821 11.6819773 19.8849142C11.6819773 17.9486209 11.6819773 14.9898524 8.93136647 14.9898524 6.18258693 14.9898524 6.18258693 17.9486209 6.18258693 19.8849142L6.18258693 28.2148821 0.000122086589 28.2148821 0.000122086589 10.7796964 6.18258693 10.7796964 6.18258693 12.9436812Z" id="Fill-1" fill="#1D1D1B"/>
              <path d="M53.3105129 19.5093758C53.3105129 25.4208084 48.4172824 28.7903983 42.8147289 28.7903983 37.2341509 28.7903983 32.3122301 25.4623179 32.3122301 19.5093758 32.3122301 13.5631485 37.2085127 10.1947795 42.8147289 10.1947795 48.4172824 10.1947795 53.3105129 13.5631485 53.3105129 19.5093758M38.8286017 19.5093758C38.8286017 21.7136492 40.300966 23.4161466 42.8147289 23.4161466 45.3242187 23.4161466 46.7874265 21.7136492 46.7874265 19.5093758 46.7874265 17.3667562 45.3242187 15.5635373 42.8147289 15.5635373 40.300966 15.5635373 38.8286017 17.3667562 38.8286017 19.5093758" id="Fill-3" fill="#1D1D1B"/>
              <path d="M55.8911792 0L62.0791379 0 62.0791379 12.471145C63.4092713 10.9438418 65.4768077 10.1948406 67.4820799 10.1948406 72.6445113 10.1948406 76.215544 14.4751964 76.215544 19.4740317 76.215544 24.5107139 72.6097166 28.7904593 67.413101 28.7904593 65.3766967 28.7904593 63.2688717 27.9987278 62.142623 26.2754756L62.0791379 26.2754756 62.0791379 28.214821 55.8911792 28.214821 55.8911792 0ZM61.8722012 19.5094368C61.8722012 21.7143206 63.3384611 23.4168181 65.8436779 23.4168181 68.3647659 23.4168181 69.8310259 21.7143206 69.8310259 19.5094368 69.8310259 17.3662068 68.3647659 15.5635983 65.8436779 15.5635983 63.3384611 15.5635983 61.8722012 17.3662068 61.8722012 19.5094368L61.8722012 19.5094368Z" id="Fill-5" fill="#1D1D1B"/>
              <path d="M85.8310227 4.07897397C85.8310227 5.98596648 84.2695352 7.54318092 82.368647 7.54318092 80.4647067 7.54318092 78.8965045 5.98596648 78.8965045 4.07897397 78.8965045 2.17259189 80.4647067 0.606220955 82.368647 0.606220955 84.2695352 0.606220955 85.8310227 2.17259189 85.8310227 4.07897397L85.8310227 4.07897397ZM79.2749729 28.2148821L85.4586586 28.2148821 85.4586586 10.7796964 79.2749729 10.7796964 79.2749729 28.2148821Z" id="Fill-7" fill="#1D1D1B"/>
              <mask id="mask-2" fill="white">
                <use xlink:href="#path-1"/>
              </mask>
              <g id="Clip-10"/>
              <polygon id="Fill-9" fill="#1D1D1B" mask="url(#mask-2)" points="89.5248745 28.214821 95.715275 28.214821 95.715275 0 89.5248745 0"/>
              <path d="M106.35738 4.07897397C106.35738 5.98596648 104.795892 7.54318092 102.891952 7.54318092 100.983739 7.54318092 99.4173677 5.98596648 99.4173677 4.07897397 99.4173677 2.17259189 100.983739 0.606220955 102.891952 0.606220955 104.795892 0.606220955 106.35738 2.17259189 106.35738 4.07897397L106.35738 4.07897397ZM99.8068239 28.2148821L105.987457 28.2148821 105.987457 10.7796964 99.8068239 10.7796964 99.8068239 28.2148821Z" id="Fill-11" fill="#1D1D1B" mask="url(#mask-2)"/>
              <path d="M129.125857 28.2146379L122.939119 28.2146379 122.939119 26.2752925 122.868309 26.2752925C121.792726 27.9985447 119.644002 28.7902762 117.595389 28.7902762 112.441504 28.7902762 108.79783 24.4720735 108.79783 19.4738486 108.79783 14.4750132 112.374356 10.1946574 117.536177 10.1946574 119.546333 10.1946574 121.645001 10.9442691 122.939119 12.4709619L122.939119 10.7800626 129.125857 10.7800626 129.125857 28.2146379ZM115.189063 19.5092537C115.189063 21.7147479 116.649218 23.416635 119.170917 23.416635 121.680406 23.416635 123.143614 21.7147479 123.143614 19.5092537 123.143614 17.3666341 121.680406 15.5634152 119.170917 15.5634152 116.649218 15.5634152 115.189063 17.3666341 115.189063 19.5092537L115.189063 19.5092537Z" id="Fill-12" fill="#1D1D1B" mask="url(#mask-2)"/>
            </g>
          </g>
        </g>
      </g>
    </g>
  </g>
</svg>
